<?xml version="1.0" encoding="UTF-8"?>
<!DOCTYPE svg PUBLIC "-//W3C//DTD SVG 1.1//EN" "http://www.w3.org/Graphics/SVG/1.1/DTD/svg11.dtd">
<svg xmlns="http://www.w3.org/2000/svg" version="1.1" width="1000px" height="141px" style="shape-rendering:geometricPrecision; text-rendering:geometricPrecision; image-rendering:optimizeQuality; fill-rule:evenodd; clip-rule:evenodd" xmlns:xlink="http://www.w3.org/1999/xlink">
<g><path style="opacity:1" fill="#d25f39" d="M 973.5,-0.5 C 981.5,-0.5 989.5,-0.5 997.5,-0.5C 998.721,34.3792 985.888,62.7125 959,84.5C 957.935,100.963 951.268,114.629 939,125.5C 933.032,118.531 926.699,111.864 920,105.5C 913.662,109.249 906.829,110.415 899.5,109C 896.826,108.33 894.493,107.163 892.5,105.5C 892.027,104.094 891.027,103.427 889.5,103.5C 886.023,100.56 883.523,96.893 882,92.5C 880.248,83.9379 881.748,76.1046 886.5,69C 880.314,62.3149 874.314,55.4816 868.5,48.5C 874.215,42.1241 881.215,37.7908 889.5,35.5C 892.152,35.5905 894.485,34.9238 896.5,33.5C 896.833,33.5 897.167,33.5 897.5,33.5C 901.846,33.6657 906.179,33.499 910.5,33C 911.056,32.6174 911.389,32.1174 911.5,31.5C 928.059,12.8872 948.725,2.22056 973.5,-0.5 Z M 972.5,61.5 C 971.094,61.9731 970.427,62.9731 970.5,64.5C 965.167,69.1667 960.167,74.1667 955.5,79.5C 953.973,79.427 952.973,80.0937 952.5,81.5C 952.235,94.4505 947.735,105.784 939,115.5C 936.963,113.294 934.797,111.294 932.5,109.5C 932.262,107.596 931.262,106.262 929.5,105.5C 926.854,102.188 923.854,99.1877 920.5,96.5C 912.6,104.439 903.933,105.439 894.5,99.5C 893.167,97.5 891.5,95.8333 889.5,94.5C 885.734,85.0331 887.4,76.6998 894.5,69.5C 895.473,67.7084 894.806,66.375 892.5,65.5C 889.833,62.1667 886.833,59.1667 883.5,56.5C 883.262,54.5956 882.262,53.2623 880.5,52.5C 879.71,51.2058 878.71,50.0391 877.5,49C 887.922,41.1459 899.589,37.8125 912.5,39C 931.922,16.8752 956.422,5.70849 986,5.5C 987.833,5.83333 989.667,6.16667 991.5,6.5C 990.829,26.8795 984.496,45.2128 972.5,61.5 Z M 952.5,27.5 C 964.517,28.5341 968.017,34.5341 963,45.5C 957.667,49.5 952.333,49.5 947,45.5C 942.729,37.4852 944.563,31.4852 952.5,27.5 Z"/></g>
<g><path style="opacity:1" fill="#c8451c" d="M 82.5,28.5 C 82.427,30.0269 83.0937,31.0269 84.5,31.5C 86.588,33.3356 87.9213,35.6689 88.5,38.5C 89.1667,41.1667 89.8333,41.1667 90.5,38.5C 91.0787,35.6689 92.412,33.3356 94.5,31.5C 95.9063,31.0269 96.573,30.0269 96.5,28.5C 98.4044,28.2624 99.7377,27.2624 100.5,25.5C 102.027,25.573 103.027,24.9063 103.5,23.5C 104.78,22.0687 106.447,21.4021 108.5,21.5C 111.152,21.5905 113.485,20.9238 115.5,19.5C 129.912,17.8248 144.245,18.3248 158.5,21C 166.678,24.0127 172.345,29.5127 175.5,37.5C 176.5,44.1667 177.5,44.1667 178.5,37.5C 183.612,25.9244 192.612,19.7577 205.5,19C 217.876,18.1305 230.209,18.4638 242.5,20C 248.474,21.315 253.474,24.1483 257.5,28.5C 257.427,30.0269 258.094,31.0269 259.5,31.5C 261.588,33.3356 262.921,35.6689 263.5,38.5C 263.281,39.675 263.614,40.675 264.5,41.5C 265.298,41.0431 265.631,40.3764 265.5,39.5C 265.402,37.4471 266.069,35.7804 267.5,34.5C 268.906,34.0269 269.573,33.0269 269.5,31.5C 271.5,30.1667 273.167,28.5 274.5,26.5C 274.5,25.8333 274.833,25.5 275.5,25.5C 277.027,25.573 278.027,24.9063 278.5,23.5C 279.78,22.0687 281.447,21.4021 283.5,21.5C 286.152,21.5905 288.485,20.9238 290.5,19.5C 303.51,18.0668 316.51,18.2335 329.5,20C 340.846,22.6816 348.346,29.515 352,40.5C 352.67,37.8261 353.837,35.4927 355.5,33.5C 357.262,32.7377 358.262,31.4044 358.5,29.5C 358.833,28.5 359.5,27.8333 360.5,27.5C 362.404,27.2624 363.738,26.2624 364.5,24.5C 369.201,21.1491 374.534,19.3158 380.5,19C 390.833,18.3333 401.167,18.3333 411.5,19C 420.346,19.5916 427.679,23.0916 433.5,29.5C 433.427,31.0269 434.094,32.0269 435.5,32.5C 435.427,34.0269 436.094,35.0269 437.5,35.5C 438.404,36.209 438.737,37.209 438.5,38.5C 439.032,41.4596 439.699,41.7929 440.5,39.5C 440.884,35.7275 442.55,32.7275 445.5,30.5C 447.167,29.5 448.5,28.1667 449.5,26.5C 451.756,23.5947 454.756,21.928 458.5,21.5C 461.152,21.5905 463.485,20.9238 465.5,19.5C 478.839,18.0888 492.172,18.2555 505.5,20C 514.761,22.434 521.428,27.934 525.5,36.5C 525.372,38.6547 525.872,40.6547 527,42.5C 527.791,41.255 528.291,39.9217 528.5,38.5C 528.461,35.911 529.461,33.911 531.5,32.5C 532.906,32.0269 533.573,31.0269 533.5,29.5C 535.749,28.9202 537.415,27.5869 538.5,25.5C 543.293,21.3715 548.959,19.2049 555.5,19C 565.833,18.3333 576.167,18.3333 586.5,19C 595.346,19.5916 602.679,23.0916 608.5,29.5C 608.427,31.0269 609.094,32.0269 610.5,32.5C 612.539,33.911 613.539,35.911 613.5,38.5C 613.709,39.9217 614.209,41.255 615,42.5C 616.128,40.6547 616.628,38.6547 616.5,36.5C 616.845,33.8021 618.178,31.8021 620.5,30.5C 621.833,29.8333 622.833,28.8333 623.5,27.5C 624.262,25.7376 625.596,24.7376 627.5,24.5C 629.027,24.573 630.027,23.9063 630.5,22.5C 631.209,21.596 632.209,21.2627 633.5,21.5C 636.152,21.5905 638.485,20.9238 640.5,19.5C 651.466,18.4015 662.466,18.2348 673.5,19C 680.849,19.276 687.183,21.776 692.5,26.5C 693.5,28.1667 694.833,29.5 696.5,30.5C 699.45,32.7275 701.116,35.7275 701.5,39.5C 702.301,41.7929 702.968,41.4596 703.5,38.5C 703.263,37.209 703.596,36.209 704.5,35.5C 705.906,35.0269 706.573,34.0269 706.5,32.5C 708.262,31.7377 709.262,30.4044 709.5,28.5C 715.204,22.7532 722.204,19.5865 730.5,19C 740.833,18.3333 751.167,18.3333 761.5,19C 766.867,19.423 771.867,20.923 776.5,23.5C 777.035,25.4456 778.368,26.4456 780.5,26.5C 785.455,30.3042 788.622,35.3042 790,41.5C 790.667,60.5 790.667,79.5 790,98.5C 785.854,112.634 776.354,120.134 761.5,121C 747.728,122.086 734.061,121.419 720.5,119C 718.934,118.392 717.6,117.558 716.5,116.5C 716.027,115.094 715.027,114.427 713.5,114.5C 713.027,113.094 712.027,112.427 710.5,112.5C 706.904,109.643 704.571,105.976 703.5,101.5C 702.934,97.1943 702.268,96.861 701.5,100.5C 698.428,111.066 691.428,117.566 680.5,120C 667.172,121.745 653.839,121.911 640.5,120.5C 638.485,119.076 636.152,118.41 633.5,118.5C 629.402,117.728 626.069,115.728 623.5,112.5C 622.833,111.167 621.833,110.167 620.5,109.5C 617.55,107.272 615.884,104.272 615.5,100.5C 615.649,99.448 615.483,98.448 615,97.5C 614.209,98.745 613.709,100.078 613.5,101.5C 610.164,111.661 603.164,117.828 592.5,120C 576.765,122.245 561.099,121.912 545.5,119C 542.761,117.974 540.428,116.474 538.5,114.5C 538.027,113.094 537.027,112.427 535.5,112.5C 531.904,109.643 529.571,105.976 528.5,101.5C 528.291,100.078 527.791,98.745 527,97.5C 526.517,98.448 526.351,99.448 526.5,100.5C 523.005,110.612 516.005,117.112 505.5,120C 492.172,121.745 478.839,121.911 465.5,120.5C 463.485,119.076 461.152,118.41 458.5,118.5C 456.447,118.598 454.78,117.931 453.5,116.5C 452.738,114.738 451.404,113.738 449.5,113.5C 448.738,111.738 447.404,110.738 445.5,110.5C 442.776,107.718 441.109,104.385 440.5,100.5C 439.732,96.861 439.066,97.1943 438.5,101.5C 435.164,111.661 428.164,117.828 417.5,120C 401.761,122.264 386.095,121.931 370.5,119C 368.273,118.059 366.273,116.892 364.5,115.5C 364.027,114.094 363.027,113.427 361.5,113.5C 359.833,112.5 358.5,111.167 357.5,109.5C 357.446,107.368 356.446,106.035 354.5,105.5C 353.406,103.641 352.573,101.641 352,99.5C 348.456,110.043 341.289,116.876 330.5,120C 315.833,122 301.167,122 286.5,120C 283.524,119.295 280.858,118.129 278.5,116.5C 278.027,115.094 277.027,114.427 275.5,114.5C 270.217,111.281 266.883,106.614 265.5,100.5C 265.719,99.325 265.386,98.325 264.5,97.5C 263.571,98.6888 263.238,100.022 263.5,101.5C 258.513,113.953 249.18,120.453 235.5,121C 222.055,122.108 208.722,121.441 195.5,119C 186.241,115.409 180.075,108.909 177,99.5C 173.32,110.512 165.82,117.346 154.5,120C 140.171,121.978 125.837,121.978 111.5,120C 108.524,119.295 105.858,118.129 103.5,116.5C 103.027,115.094 102.027,114.427 100.5,114.5C 99.7377,112.738 98.4044,111.738 96.5,111.5C 93.4977,108.839 91.4977,105.505 90.5,101.5C 89.8333,98.8333 89.1667,98.8333 88.5,101.5C 83.5135,113.953 74.1801,120.453 60.5,121C 48.4569,121.865 36.4569,121.532 24.5,120C 13.1797,117.346 5.67968,110.512 2,99.5C 1.33333,79.8333 1.33333,60.1667 2,40.5C 6.59506,26.9415 16.0951,19.7748 30.5,19C 40.5,18.3333 50.5,18.3333 60.5,19C 69.1677,19.379 76.501,22.5456 82.5,28.5 Z M 67.5,32.5 C 66.7777,33.5511 65.7777,34.2178 64.5,34.5C 55.5779,33.3631 46.5779,33.1965 37.5,34C 35.2845,36.5023 34.2845,39.5023 34.5,43C 34.2845,46.4977 35.2845,49.4977 37.5,52C 46.8833,52.1467 56.2167,52.8134 65.5,54C 69.6918,58.24 71.3584,63.4066 70.5,69.5C 70.4961,73.5695 69.9961,77.5695 69,81.5C 67.4571,83.3783 65.6238,84.8783 63.5,86C 53.5056,86.4998 43.5056,86.6665 33.5,86.5C 32.5,85.8333 31.5,85.1667 30.5,84.5C 31.0319,82.3699 31.8652,80.3699 33,78.5C 37.9202,79.1543 42.9202,79.4876 48,79.5C 53.2497,79.4703 58.2497,78.8036 63,77.5C 63.6667,72.5 63.6667,67.5 63,62.5C 62.6258,61.5838 62.1258,60.7504 61.5,60C 53.5069,59.5003 45.5069,59.3336 37.5,59.5C 35.9724,58.6908 34.3057,58.0241 32.5,57.5C 31.5423,56.0384 30.3756,54.7051 29,53.5C 28.3333,46.5 28.3333,39.5 29,32.5C 30.5,31 32,29.5 33.5,28C 45.1583,26.025 56.825,26.025 68.5,28C 67.6198,29.3561 67.2865,30.8561 67.5,32.5 Z M 118.5,72.5 C 118.5,74.8333 118.5,77.1667 118.5,79.5C 120.167,79.5 121.833,79.5 123.5,79.5C 123.5,78.5 123.5,77.5 123.5,76.5C 126.542,60.9165 129.376,45.2498 132,29.5C 134.041,28.5769 136.208,28.2436 138.5,28.5C 141.223,45.1737 144.057,61.8404 147,78.5C 149.022,79.9909 150.688,79.6576 152,77.5C 153.307,60.4305 155.14,43.4305 157.5,26.5C 159.854,27.0601 162.187,27.7267 164.5,28.5C 162.172,46.1143 160.172,63.781 158.5,81.5C 156.5,82.8333 154.833,84.5 153.5,86.5C 148.145,87.6547 143.978,85.988 141,81.5C 139.282,72.5273 137.782,63.5273 136.5,54.5C 136.628,52.3453 136.128,50.3453 135,48.5C 134.51,49.7932 134.343,51.1266 134.5,52.5C 132.993,62.543 131.159,72.543 129,82.5C 125.95,86.1303 122.117,87.297 117.5,86C 115,84.8333 113.167,83 112,80.5C 110.677,67.7598 109.177,55.0931 107.5,42.5C 107.249,37.4932 106.916,32.4932 106.5,27.5C 108.591,27.6816 110.591,27.3482 112.5,26.5C 113.251,27.376 113.751,28.376 114,29.5C 115.234,43.9149 116.734,58.2483 118.5,72.5 Z M 204.5,26.5 C 218.167,26.5 231.833,26.5 245.5,26.5C 245.5,28.8333 245.5,31.1667 245.5,33.5C 239.833,33.5 234.167,33.5 228.5,33.5C 228.5,48.8333 228.5,64.1667 228.5,79.5C 234.167,79.5 239.833,79.5 245.5,79.5C 245.5,81.8333 245.5,84.1667 245.5,86.5C 231.833,86.5 218.167,86.5 204.5,86.5C 204.5,84.1667 204.5,81.8333 204.5,79.5C 209.833,79.5 215.167,79.5 220.5,79.5C 221.496,64.3424 221.83,49.0091 221.5,33.5C 215.833,33.5 210.167,33.5 204.5,33.5C 204.5,31.1667 204.5,28.8333 204.5,26.5 Z M 330.5,26.5 C 330.5,28.8333 330.5,31.1667 330.5,33.5C 320.833,33.5 311.167,33.5 301.5,33.5C 301.177,39.69 301.51,45.69 302.5,51.5C 310.5,51.5 318.5,51.5 326.5,51.5C 326.5,53.8333 326.5,56.1667 326.5,58.5C 318.167,58.5 309.833,58.5 301.5,58.5C 301.5,67.8333 301.5,77.1667 301.5,86.5C 299.167,86.5 296.833,86.5 294.5,86.5C 294.5,66.5 294.5,46.5 294.5,26.5C 306.5,26.5 318.5,26.5 330.5,26.5 Z M 497.5,26.5 C 499.219,27.0221 500.552,28.0221 501.5,29.5C 501.617,31.4835 500.95,33.1502 499.5,34.5C 490.215,33.3604 480.881,33.1937 471.5,34C 470.841,41.4237 470.508,48.9237 470.5,56.5C 470.508,64.0763 470.841,71.5763 471.5,79C 480.881,79.8063 490.215,79.6396 499.5,78.5C 500.172,79.9492 500.839,81.2825 501.5,82.5C 501.473,84.1993 500.806,85.5326 499.5,86.5C 489.828,86.6665 480.161,86.4998 470.5,86C 467.667,84.5 465.5,82.3333 464,79.5C 463.031,63.4078 463.364,47.4078 465,31.5C 466.637,29.1898 468.804,27.6898 471.5,27C 480.16,26.5002 488.827,26.3336 497.5,26.5 Z M 558.5,26.5 C 566.84,26.3336 575.173,26.5003 583.5,27C 585.452,27.3661 587.118,28.1995 588.5,29.5C 588.783,30.2891 589.283,30.9558 590,31.5C 590.5,49.8303 590.667,68.1636 590.5,86.5C 579.225,86.4561 567.892,86.2894 556.5,86C 554.376,84.8783 552.543,83.3783 551,81.5C 549,74.5 549,67.5 551,60.5C 552.167,59.3333 553.333,58.1667 554.5,57C 563.766,55.6137 573.1,55.1137 582.5,55.5C 582.56,56.0431 582.893,56.3764 583.5,56.5C 584.819,49.344 584.819,42.344 583.5,35.5C 583.389,34.8826 583.056,34.3826 582.5,34C 573.465,33.2519 564.465,33.4185 555.5,34.5C 555.634,32.7085 555.301,31.0418 554.5,29.5C 555.448,28.0221 556.781,27.0221 558.5,26.5 Z M 640.5,26.5 C 650.839,26.3335 661.172,26.5002 671.5,27C 674.684,27.8251 677.184,29.6584 679,32.5C 680.271,37.7539 680.771,43.0873 680.5,48.5C 679.514,50.4261 678.514,52.4261 677.5,54.5C 668.39,57.0294 668.39,59.3627 677.5,61.5C 678.584,62.6651 679.417,63.9984 680,65.5C 681.384,72.4112 681.884,79.4112 681.5,86.5C 679.167,86.5 676.833,86.5 674.5,86.5C 674.823,79.9779 674.49,73.6446 673.5,67.5C 673.78,64.6118 672.447,63.1118 669.5,63C 662.508,62.5004 655.508,62.3337 648.5,62.5C 647.508,70.3159 647.174,78.3159 647.5,86.5C 645.167,86.5 642.833,86.5 640.5,86.5C 640.5,66.5 640.5,46.5 640.5,26.5 Z M 771.5,26.5 C 771.5,28.8333 771.5,31.1667 771.5,33.5C 765.5,33.5 759.5,33.5 753.5,33.5C 753.5,51.1667 753.5,68.8333 753.5,86.5C 751.167,86.5 748.833,86.5 746.5,86.5C 746.5,68.8333 746.5,51.1667 746.5,33.5C 740.833,33.5 735.167,33.5 729.5,33.5C 729.5,31.1667 729.5,28.8333 729.5,26.5C 743.5,26.5 757.5,26.5 771.5,26.5 Z M 379.5,26.5 C 393.167,26.5 406.833,26.5 420.5,26.5C 420.5,28.8333 420.5,31.1667 420.5,33.5C 414.833,33.5 409.167,33.5 403.5,33.5C 403.5,51.1667 403.5,68.8333 403.5,86.5C 401.167,86.5 398.833,86.5 396.5,86.5C 396.5,68.8333 396.5,51.1667 396.5,33.5C 390.833,33.5 385.167,33.5 379.5,33.5C 379.5,31.1667 379.5,28.8333 379.5,26.5 Z"/></g>
<g><path style="opacity:1" fill="#cd532b" d="M 820.5,19.5 C 820.427,21.0269 821.094,22.0269 822.5,22.5C 823.658,53.7617 823.825,85.095 823,116.5C 821.967,121.563 819.467,122.563 815.5,119.5C 814.902,118.205 814.402,116.872 814,115.5C 813.333,85.1667 813.333,54.8333 814,24.5C 814.544,20.0705 816.711,18.4039 820.5,19.5 Z"/></g>
<g><path style="opacity:0.98" fill="#df886b" d="M 115.5,19.5 C 113.485,20.9238 111.152,21.5905 108.5,21.5C 110.515,20.0762 112.848,19.4095 115.5,19.5 Z"/></g>
<g><path style="opacity:0.973" fill="#e08b6f" d="M 290.5,19.5 C 288.485,20.9238 286.152,21.5905 283.5,21.5C 285.515,20.0762 287.848,19.4095 290.5,19.5 Z"/></g>
<g><path style="opacity:0.961" fill="#e18e73" d="M 465.5,19.5 C 463.485,20.9238 461.152,21.5905 458.5,21.5C 460.515,20.0762 462.848,19.4095 465.5,19.5 Z"/></g>
<g><path style="opacity:0.949" fill="#e29277" d="M 640.5,19.5 C 638.485,20.9238 636.152,21.5905 633.5,21.5C 635.515,20.0762 637.848,19.4095 640.5,19.5 Z"/></g>
<g><path style="opacity:0.38" fill="#ecb6a5" d="M 820.5,19.5 C 821.906,19.9731 822.573,20.9731 822.5,22.5C 821.094,22.0269 820.427,21.0269 820.5,19.5 Z"/></g>
<g><path style="opacity:1" fill="#d3613b" d="M 940.5,29.5 C 941.906,29.0269 942.573,28.0269 942.5,26.5C 945.778,22.7787 949.944,20.7787 955,20.5C 970.138,23.7717 975.138,32.7717 970,47.5C 960.629,57.699 950.962,58.0324 941,48.5C 936.588,42.1305 936.421,35.7972 940.5,29.5 Z M 952.5,27.5 C 944.563,31.4852 942.729,37.4852 947,45.5C 952.333,49.5 957.667,49.5 963,45.5C 968.017,34.5341 964.517,28.5341 952.5,27.5 Z"/></g>
<g><path style="opacity:0.824" fill="#e59c84" d="M 630.5,22.5 C 630.027,23.9063 629.027,24.573 627.5,24.5C 627.973,23.0937 628.973,22.427 630.5,22.5 Z"/></g>
<g><path style="opacity:0.796" fill="#e69f88" d="M 103.5,23.5 C 103.027,24.9063 102.027,25.573 100.5,25.5C 100.973,24.0937 101.973,23.427 103.5,23.5 Z"/></g>
<g><path style="opacity:0.745" fill="#e8a792" d="M 278.5,23.5 C 278.027,24.9063 277.027,25.573 275.5,25.5C 275.973,24.0937 276.973,23.427 278.5,23.5 Z"/></g>
<g><path style="opacity:0.922" fill="#eba891" d="M 776.5,23.5 C 778.23,24.0256 779.564,25.0256 780.5,26.5C 778.368,26.4456 777.035,25.4456 776.5,23.5 Z"/></g>
<g><path style="opacity:0.533" fill="#e29e88" d="M 203.5,26.5 C 217.657,25.5041 231.99,25.1707 246.5,25.5C 246.5,28.1667 246.5,30.8333 246.5,33.5C 246.167,33.5 245.833,33.5 245.5,33.5C 245.5,31.1667 245.5,28.8333 245.5,26.5C 231.833,26.5 218.167,26.5 204.5,26.5C 204.167,26.5 203.833,26.5 203.5,26.5 Z"/></g>
<g><path style="opacity:0.745" fill="#e7a088" d="M 364.5,24.5 C 363.738,26.2624 362.404,27.2624 360.5,27.5C 361.262,25.7376 362.596,24.7376 364.5,24.5 Z"/></g>
<g><path style="opacity:0.533" fill="#e29d87" d="M 771.5,26.5 C 757.5,26.5 743.5,26.5 729.5,26.5C 729.5,28.8333 729.5,31.1667 729.5,33.5C 729.167,33.5 728.833,33.5 728.5,33.5C 728.5,30.8333 728.5,28.1667 728.5,25.5C 743.01,25.1707 757.343,25.5041 771.5,26.5 Z"/></g>
<g><path style="opacity:0.659" fill="#e9a994" d="M 100.5,25.5 C 99.7377,27.2624 98.4044,28.2624 96.5,28.5C 97.2623,26.7376 98.5956,25.7376 100.5,25.5 Z"/></g>
<g><path style="opacity:0.416" fill="#e4a996" d="M 330.5,26.5 C 318.5,26.5 306.5,26.5 294.5,26.5C 294.5,46.5 294.5,66.5 294.5,86.5C 296.833,86.5 299.167,86.5 301.5,86.5C 301.5,86.8333 301.5,87.1667 301.5,87.5C 298.833,87.5 296.167,87.5 293.5,87.5C 293.5,66.8333 293.5,46.1667 293.5,25.5C 306.011,25.1714 318.345,25.5048 330.5,26.5 Z"/></g>
<g><path style="opacity:0.361" fill="#eec7bb" d="M 497.5,26.5 C 499.167,26.5 500.833,26.5 502.5,26.5C 502.737,27.791 502.404,28.791 501.5,29.5C 500.552,28.0221 499.219,27.0221 497.5,26.5 Z"/></g>
<g><path style="opacity:0.361" fill="#edc3b5" d="M 558.5,26.5 C 556.781,27.0221 555.448,28.0221 554.5,29.5C 553.596,28.791 553.263,27.791 553.5,26.5C 555.167,26.5 556.833,26.5 558.5,26.5 Z"/></g>
<g><path style="opacity:0.004" fill="#f2c7ba" d="M 692.5,26.5 C 694.833,26.8333 696.167,28.1667 696.5,30.5C 694.833,29.5 693.5,28.1667 692.5,26.5 Z"/></g>
<g><path style="opacity:0.706" fill="#e9a994" d="M 274.5,26.5 C 273.167,28.5 271.5,30.1667 269.5,31.5C 270.167,28.8333 271.833,27.1667 274.5,26.5 Z"/></g>
<g><path style="opacity:0.639" fill="#eab09d" d="M 449.5,26.5 C 448.5,28.1667 447.167,29.5 445.5,30.5C 445.833,28.1667 447.167,26.8333 449.5,26.5 Z"/></g>
<g><path style="opacity:0.91" fill="#df8465" d="M 538.5,25.5 C 537.415,27.5869 535.749,28.9202 533.5,29.5C 534.585,27.4131 536.251,26.0798 538.5,25.5 Z"/></g>
<g><path style="opacity:0.459" fill="#ecb5a4" d="M 942.5,26.5 C 942.573,28.0269 941.906,29.0269 940.5,29.5C 940.427,27.9731 941.094,26.9731 942.5,26.5 Z"/></g>
<g><path style="opacity:0.733" fill="#ebad99" d="M 82.5,28.5 C 83.9063,28.9731 84.573,29.9731 84.5,31.5C 83.0937,31.0269 82.427,30.0269 82.5,28.5 Z"/></g>
<g><path style="opacity:0.761" fill="#eaaa94" d="M 96.5,28.5 C 96.573,30.0269 95.9063,31.0269 94.5,31.5C 94.427,29.9731 95.0937,28.9731 96.5,28.5 Z"/></g>
<g><path style="opacity:0.792" fill="#e9a48d" d="M 257.5,28.5 C 258.906,28.9731 259.573,29.9731 259.5,31.5C 258.094,31.0269 257.427,30.0269 257.5,28.5 Z"/></g>
<g><path style="opacity:0.506" fill="#ebb7a6" d="M 623.5,27.5 C 622.833,28.8333 621.833,29.8333 620.5,30.5C 620.5,28.5 621.5,27.5 623.5,27.5 Z"/></g>
<g><path style="opacity:0.878" fill="#e79d85" d="M 709.5,28.5 C 709.262,30.4044 708.262,31.7377 706.5,32.5C 706.738,30.5956 707.738,29.2623 709.5,28.5 Z"/></g>
<g><path style="opacity:0.871" fill="#e8a38b" d="M 358.5,29.5 C 358.262,31.4044 357.262,32.7377 355.5,33.5C 355.738,31.5956 356.738,30.2623 358.5,29.5 Z"/></g>
<g><path style="opacity:0.824" fill="#e79f87" d="M 533.5,29.5 C 533.573,31.0269 532.906,32.0269 531.5,32.5C 531.427,30.9731 532.094,29.9731 533.5,29.5 Z"/></g>
<g><path style="opacity:0.804" fill="#e8a48d" d="M 608.5,29.5 C 609.906,29.9731 610.573,30.9731 610.5,32.5C 609.094,32.0269 608.427,31.0269 608.5,29.5 Z"/></g>
<g><path style="opacity:0.514" fill="#eab09e" d="M 433.5,29.5 C 434.906,29.9731 435.573,30.9731 435.5,32.5C 434.094,32.0269 433.427,31.0269 433.5,29.5 Z"/></g>
<g><path style="opacity:0.032" fill="#fbf2f0" d="M 588.5,29.5 C 589.496,29.4142 590.329,29.7476 591,30.5C 591.829,49.3379 591.662,68.0045 590.5,86.5C 590.667,68.1636 590.5,49.8303 590,31.5C 589.283,30.9558 588.783,30.2891 588.5,29.5 Z"/></g>
<g><path style="opacity:0.592" fill="#e5a692" d="M 911.5,31.5 C 911.389,32.1174 911.056,32.6174 910.5,33C 906.179,33.499 901.846,33.6657 897.5,33.5C 902.029,32.7265 906.695,32.0599 911.5,31.5 Z"/></g>
<g><path style="opacity:0.58" fill="#e69f87" d="M 269.5,31.5 C 269.573,33.0269 268.906,34.0269 267.5,34.5C 267.427,32.9731 268.094,31.9731 269.5,31.5 Z"/></g>
<g><path style="opacity:0.471" fill="#e8af9c" d="M 67.5,32.5 C 67.5,33.5 67.5,34.5 67.5,35.5C 66.209,35.7373 65.209,35.404 64.5,34.5C 65.7777,34.2178 66.7777,33.5511 67.5,32.5 Z"/></g>
<g><path style="opacity:0.451" fill="#e5a894" d="M 203.5,26.5 C 203.833,26.5 204.167,26.5 204.5,26.5C 204.5,28.8333 204.5,31.1667 204.5,33.5C 210.167,33.5 215.833,33.5 221.5,33.5C 221.83,49.0091 221.496,64.3424 220.5,79.5C 220.5,64.5 220.5,49.5 220.5,34.5C 214.833,34.5 209.167,34.5 203.5,34.5C 203.5,31.8333 203.5,29.1667 203.5,26.5 Z"/></g>
<g><path style="opacity:0.643" fill="#d77d61" d="M 245.5,33.5 C 245.833,33.5 246.167,33.5 246.5,33.5C 241.025,34.4889 235.358,34.8222 229.5,34.5C 229.5,49.1667 229.5,63.8333 229.5,78.5C 235.358,78.1778 241.025,78.5111 246.5,79.5C 246.167,79.5 245.833,79.5 245.5,79.5C 239.833,79.5 234.167,79.5 228.5,79.5C 228.5,64.1667 228.5,48.8333 228.5,33.5C 234.167,33.5 239.833,33.5 245.5,33.5 Z"/></g>
<g><path style="opacity:0.647" fill="#d98267" d="M 330.5,33.5 C 321.348,34.4936 312.015,34.8269 302.5,34.5C 302.5,40.1667 302.5,45.8333 302.5,51.5C 301.51,45.69 301.177,39.69 301.5,33.5C 311.167,33.5 320.833,33.5 330.5,33.5 Z"/></g>
<g><path style="opacity:0.545" fill="#e09881" d="M 378.5,25.5 C 392.833,25.5 407.167,25.5 421.5,25.5C 421.5,28.5 421.5,31.5 421.5,34.5C 415.833,34.5 410.167,34.5 404.5,34.5C 404.5,52.1667 404.5,69.8333 404.5,87.5C 401.5,87.5 398.5,87.5 395.5,87.5C 395.5,69.8333 395.5,52.1667 395.5,34.5C 389.833,34.5 384.167,34.5 378.5,34.5C 378.5,31.5 378.5,28.5 378.5,25.5 Z M 379.5,26.5 C 379.5,28.8333 379.5,31.1667 379.5,33.5C 385.167,33.5 390.833,33.5 396.5,33.5C 396.5,51.1667 396.5,68.8333 396.5,86.5C 398.833,86.5 401.167,86.5 403.5,86.5C 403.5,68.8333 403.5,51.1667 403.5,33.5C 409.167,33.5 414.833,33.5 420.5,33.5C 420.5,31.1667 420.5,28.8333 420.5,26.5C 406.833,26.5 393.167,26.5 379.5,26.5 Z"/></g>
<g><path style="opacity:0.345" fill="#edbaa9" d="M 435.5,32.5 C 436.906,32.9731 437.573,33.9731 437.5,35.5C 436.094,35.0269 435.427,34.0269 435.5,32.5 Z"/></g>
<g><path style="opacity:0.396" fill="#eab4a3" d="M 669.5,34.5 C 662.5,34.5 655.5,34.5 648.5,34.5C 648.5,41.1667 648.5,47.8333 648.5,54.5C 654.833,54.5 661.167,54.5 667.5,54.5C 661.021,55.4907 654.354,55.824 647.5,55.5C 647.5,48.1667 647.5,40.8333 647.5,33.5C 655.019,33.175 662.352,33.5084 669.5,34.5 Z"/></g>
<g><path style="opacity:1" fill="#c8451b" d="M 669.5,34.5 C 670.583,34.5394 671.583,34.8728 672.5,35.5C 673.782,40.8857 673.782,46.219 672.5,51.5C 671.5,51.8333 670.833,52.5 670.5,53.5C 669.791,54.404 668.791,54.7373 667.5,54.5C 661.167,54.5 654.833,54.5 648.5,54.5C 648.5,47.8333 648.5,41.1667 648.5,34.5C 655.5,34.5 662.5,34.5 669.5,34.5 Z"/></g>
<g><path style="opacity:0.388" fill="#ecb4a1" d="M 706.5,32.5 C 706.573,34.0269 705.906,35.0269 704.5,35.5C 704.427,33.9731 705.094,32.9731 706.5,32.5 Z"/></g>
<g><path style="opacity:0.71" fill="#d6775a" d="M 728.5,33.5 C 728.833,33.5 729.167,33.5 729.5,33.5C 735.167,33.5 740.833,33.5 746.5,33.5C 746.5,51.1667 746.5,68.8333 746.5,86.5C 746.5,86.8333 746.5,87.1667 746.5,87.5C 745.503,70.0079 745.17,52.3412 745.5,34.5C 739.642,34.8222 733.975,34.4889 728.5,33.5 Z"/></g>
<g><path style="opacity:0.384" fill="#e6ab98" d="M 771.5,33.5 C 766.025,34.4889 760.358,34.8222 754.5,34.5C 754.5,52.1667 754.5,69.8333 754.5,87.5C 751.833,87.5 749.167,87.5 746.5,87.5C 746.5,87.1667 746.5,86.8333 746.5,86.5C 748.833,86.5 751.167,86.5 753.5,86.5C 753.5,68.8333 753.5,51.1667 753.5,33.5C 759.5,33.5 765.5,33.5 771.5,33.5 Z"/></g>
<g><path style="opacity:0.906" fill="#e3967c" d="M 896.5,33.5 C 894.485,34.9238 892.152,35.5905 889.5,35.5C 891.515,34.0762 893.848,33.4095 896.5,33.5 Z"/></g>
<g><path style="opacity:0.788" fill="#d97a5c" d="M 583.5,35.5 C 584.819,42.344 584.819,49.344 583.5,56.5C 582.893,56.3764 582.56,56.0431 582.5,55.5C 583.491,49.021 583.824,42.3543 583.5,35.5 Z"/></g>
<g><path style="opacity:0.235" fill="#f6e1da" d="M 88.5,38.5 C 89.1667,38.5 89.8333,38.5 90.5,38.5C 89.8333,41.1667 89.1667,41.1667 88.5,38.5 Z"/></g>
<g><path style="opacity:0.376" fill="#f0cec3" d="M 438.5,38.5 C 439.167,38.8333 439.833,39.1667 440.5,39.5C 439.699,41.7929 439.032,41.4596 438.5,38.5 Z"/></g>
<g><path style="opacity:0.914" fill="#e0896c" d="M 175.5,37.5 C 176.268,38.2625 176.768,39.2625 177,40.5C 177.232,39.2625 177.732,38.2625 178.5,37.5C 177.5,44.1667 176.5,44.1667 175.5,37.5 Z"/></g>
<g><path style="opacity:0.424" fill="#eab8a9" d="M 263.5,38.5 C 264.167,38.8333 264.833,39.1667 265.5,39.5C 265.631,40.3764 265.298,41.0431 264.5,41.5C 263.614,40.675 263.281,39.675 263.5,38.5 Z"/></g>
<g><path style="opacity:0.188" fill="#ecb6a3" d="M 525.5,36.5 C 526.268,37.2625 526.768,38.2625 527,39.5C 527.383,38.944 527.883,38.6107 528.5,38.5C 528.291,39.9217 527.791,41.255 527,42.5C 525.872,40.6547 525.372,38.6547 525.5,36.5 Z"/></g>
<g><path style="opacity:0.231" fill="#ecb3a1" d="M 616.5,36.5 C 616.628,38.6547 616.128,40.6547 615,42.5C 614.209,41.255 613.709,39.9217 613.5,38.5C 614.117,38.6107 614.617,38.944 615,39.5C 615.232,38.2625 615.732,37.2625 616.5,36.5 Z"/></g>
<g><path style="opacity:0.271" fill="#f1d0c6" d="M 703.5,38.5 C 702.968,41.4596 702.301,41.7929 701.5,39.5C 702.167,39.1667 702.833,38.8333 703.5,38.5 Z"/></g>
<g><path style="opacity:0.749" fill="#e09076" d="M 106.5,27.5 C 106.916,32.4932 107.249,37.4932 107.5,42.5C 105.754,37.5517 105.421,32.5517 106.5,27.5 Z"/></g>
<g><path style="opacity:0.004" fill="#f4d5cb" d="M 672.5,51.5 C 672.5,52.8333 671.833,53.5 670.5,53.5C 670.833,52.5 671.5,51.8333 672.5,51.5 Z"/></g>
<g><path style="opacity:0.478" fill="#eab5a5" d="M 136.5,54.5 C 135.833,53.8333 135.167,53.1667 134.5,52.5C 134.343,51.1266 134.51,49.7932 135,48.5C 136.128,50.3453 136.628,52.3453 136.5,54.5 Z"/></g>
<g><path style="opacity:0.765" fill="#e69b81" d="M 680.5,48.5 C 680.969,51.3933 679.969,53.3933 677.5,54.5C 678.514,52.4261 679.514,50.4261 680.5,48.5 Z"/></g>
<g><path style="opacity:0.722" fill="#ecb19d" d="M 880.5,52.5 C 882.262,53.2623 883.262,54.5956 883.5,56.5C 881.738,55.7377 880.738,54.4044 880.5,52.5 Z"/></g>
<g><path style="opacity:0.306" fill="#eebcab" d="M 32.5,57.5 C 34.3057,58.0241 35.9724,58.6908 37.5,59.5C 35.2188,59.9227 33.5521,59.256 32.5,57.5 Z"/></g>
<g><path style="opacity:0.647" fill="#e19982" d="M 326.5,58.5 C 318.684,59.4924 310.684,59.8257 302.5,59.5C 302.827,69.015 302.494,78.3483 301.5,87.5C 301.5,87.1667 301.5,86.8333 301.5,86.5C 301.5,77.1667 301.5,67.8333 301.5,58.5C 309.833,58.5 318.167,58.5 326.5,58.5 Z"/></g>
<g><path style="opacity:0.702" fill="#ebb09d" d="M 972.5,61.5 C 972.573,63.0269 971.906,64.0269 970.5,64.5C 970.427,62.9731 971.094,61.9731 972.5,61.5 Z"/></g>
<g><path style="opacity:1" fill="#c74319" d="M 557.5,63.5 C 566.167,63.5 574.833,63.5 583.5,63.5C 583.5,68.5 583.5,73.5 583.5,78.5C 574.833,78.5 566.167,78.5 557.5,78.5C 556.249,73.3691 556.249,68.3691 557.5,63.5 Z"/></g>
<g><path style="opacity:0.396" fill="#e29e87" d="M 640.5,26.5 C 640.5,46.5 640.5,66.5 640.5,86.5C 642.833,86.5 645.167,86.5 647.5,86.5C 647.174,78.3159 647.508,70.3159 648.5,62.5C 648.5,70.8333 648.5,79.1667 648.5,87.5C 645.5,87.5 642.5,87.5 639.5,87.5C 639.17,66.9931 639.503,46.6598 640.5,26.5 Z"/></g>
<g><path style="opacity:0.733" fill="#eeb8a7" d="M 892.5,65.5 C 894.806,66.375 895.473,67.7084 894.5,69.5C 893.4,68.3951 892.733,67.0618 892.5,65.5 Z"/></g>
<g><path style="opacity:0.161" fill="#f2d7ce" d="M 673.5,67.5 C 674.49,73.6446 674.823,79.9779 674.5,86.5C 676.833,86.5 679.167,86.5 681.5,86.5C 679.052,87.4731 676.385,87.8064 673.5,87.5C 673.5,80.8333 673.5,74.1667 673.5,67.5 Z"/></g>
<g><path style="opacity:0.894" fill="#dc8468" d="M 118.5,72.5 C 119.461,74.2646 119.795,76.2646 119.5,78.5C 121.199,78.4729 122.533,77.8062 123.5,76.5C 123.5,77.5 123.5,78.5 123.5,79.5C 121.833,79.5 120.167,79.5 118.5,79.5C 118.5,77.1667 118.5,74.8333 118.5,72.5 Z"/></g>
<g><path style="opacity:0.8" fill="#da8063" d="M 557.5,63.5 C 566.318,62.5067 575.318,62.1734 584.5,62.5C 584.5,68.1667 584.5,73.8333 584.5,79.5C 575.318,79.8266 566.318,79.4933 557.5,78.5C 566.167,78.5 574.833,78.5 583.5,78.5C 583.5,73.5 583.5,68.5 583.5,63.5C 574.833,63.5 566.167,63.5 557.5,63.5 Z"/></g>
<g><path style="opacity:0.639" fill="#eab09d" d="M 955.5,79.5 C 955.027,80.9063 954.027,81.573 952.5,81.5C 952.973,80.0937 953.973,79.427 955.5,79.5 Z"/></g>
<g><path style="opacity:0.106" fill="#f2cfc4" d="M 30.5,84.5 C 31.5,85.1667 32.5,85.8333 33.5,86.5C 32.0222,86.762 30.6888,86.4287 29.5,85.5C 29.6236,84.8933 29.9569,84.56 30.5,84.5 Z"/></g>
<g><path style="opacity:0.824" fill="#e39175" d="M 158.5,81.5 C 157.833,84.1667 156.167,85.8333 153.5,86.5C 154.833,84.5 156.5,82.8333 158.5,81.5 Z"/></g>
<g><path style="opacity:0.345" fill="#ecbeaf" d="M 501.5,82.5 C 502.434,83.5676 502.768,84.901 502.5,86.5C 501.5,86.5 500.5,86.5 499.5,86.5C 500.806,85.5326 501.473,84.1993 501.5,82.5 Z"/></g>
<g><path style="opacity:0.333" fill="#eec6ba" d="M 204.5,79.5 C 204.5,81.8333 204.5,84.1667 204.5,86.5C 218.167,86.5 231.833,86.5 245.5,86.5C 245.5,84.1667 245.5,81.8333 245.5,79.5C 245.833,79.5 246.167,79.5 246.5,79.5C 246.5,82.1667 246.5,84.8333 246.5,87.5C 232.167,87.5 217.833,87.5 203.5,87.5C 203.194,84.6146 203.527,81.9479 204.5,79.5 Z"/></g>
<g><path style="opacity:0.925" fill="#eaa68f" d="M 889.5,94.5 C 891.5,95.8333 893.167,97.5 894.5,99.5C 891.833,98.8333 890.167,97.1667 889.5,94.5 Z"/></g>
<g><path style="opacity:0.424" fill="#e8ac98" d="M 265.5,100.5 C 264.833,100.833 264.167,101.167 263.5,101.5C 263.238,100.022 263.571,98.6888 264.5,97.5C 265.386,98.325 265.719,99.325 265.5,100.5 Z"/></g>
<g><path style="opacity:0.325" fill="#ecbcad" d="M 440.5,100.5 C 439.833,100.833 439.167,101.167 438.5,101.5C 439.066,97.1943 439.732,96.861 440.5,100.5 Z"/></g>
<g><path style="opacity:0.427" fill="#ebb6a6" d="M 703.5,101.5 C 702.833,101.167 702.167,100.833 701.5,100.5C 702.268,96.861 702.934,97.1943 703.5,101.5 Z"/></g>
<g><path style="opacity:0.014" fill="#faeeea" d="M 90.5,101.5 C 89.8333,101.5 89.1667,101.5 88.5,101.5C 89.1667,98.8333 89.8333,98.8333 90.5,101.5 Z"/></g>
<g><path style="opacity:0.224" fill="#efc7bb" d="M 528.5,101.5 C 527.833,101.167 527.167,100.833 526.5,100.5C 526.351,99.448 526.517,98.448 527,97.5C 527.791,98.745 528.291,100.078 528.5,101.5 Z"/></g>
<g><path style="opacity:0.173" fill="#f1d0c6" d="M 615.5,100.5 C 614.833,100.833 614.167,101.167 613.5,101.5C 613.709,100.078 614.209,98.745 615,97.5C 615.483,98.448 615.649,99.448 615.5,100.5 Z"/></g>
<g><path style="opacity:1" fill="#d3603a" d="M 849.5,139.5 C 848.508,139.672 847.842,139.338 847.5,138.5C 849.282,129.476 852.615,121.143 857.5,113.5C 858.906,113.027 859.573,112.027 859.5,110.5C 861.5,109.167 863.167,107.5 864.5,105.5C 869.421,101.022 875.088,99.8552 881.5,102C 887.639,108.254 888.139,115.087 883,122.5C 873.826,132.004 862.659,137.671 849.5,139.5 Z M 877.5,118.5 C 875.5,119.833 873.833,121.5 872.5,123.5C 867.673,126.079 862.673,128.412 857.5,130.5C 858.553,120.61 863.553,113.11 872.5,108C 876.508,106.584 878.841,107.918 879.5,112C 878.967,114.226 878.3,116.393 877.5,118.5 Z"/></g>
<g><path style="opacity:0.506" fill="#eab09e" d="M 889.5,103.5 C 891.027,103.427 892.027,104.094 892.5,105.5C 890.973,105.573 889.973,104.906 889.5,103.5 Z"/></g>
<g><path style="opacity:0.945" fill="#eba68e" d="M 354.5,105.5 C 356.446,106.035 357.446,107.368 357.5,109.5C 356.026,108.564 355.026,107.23 354.5,105.5 Z"/></g>
<g><path style="opacity:0.671" fill="#eeb9a8" d="M 929.5,105.5 C 931.262,106.262 932.262,107.596 932.5,109.5C 930.738,108.738 929.738,107.404 929.5,105.5 Z"/></g>
<g><path style="opacity:0.624" fill="#ecb4a2" d="M 864.5,105.5 C 863.167,107.5 861.5,109.167 859.5,110.5C 860.167,107.833 861.833,106.167 864.5,105.5 Z"/></g>
<g><path style="opacity:0.647" fill="#eeb9a8" d="M 445.5,110.5 C 447.404,110.738 448.738,111.738 449.5,113.5C 447.596,113.262 446.262,112.262 445.5,110.5 Z"/></g>
<g><path style="opacity:0.004" fill="#f2c7ba" d="M 620.5,109.5 C 621.833,110.167 622.833,111.167 623.5,112.5C 621.5,112.5 620.5,111.5 620.5,109.5 Z"/></g>
<g><path style="opacity:0.804" fill="#eaa993" d="M 96.5,111.5 C 98.4044,111.738 99.7377,112.738 100.5,114.5C 98.5956,114.262 97.2623,113.262 96.5,111.5 Z"/></g>
<g><path style="opacity:0.835" fill="#e69b83" d="M 535.5,112.5 C 537.027,112.427 538.027,113.094 538.5,114.5C 536.973,114.573 535.973,113.906 535.5,112.5 Z"/></g>
<g><path style="opacity:0.792" fill="#e8a38c" d="M 710.5,112.5 C 712.027,112.427 713.027,113.094 713.5,114.5C 711.973,114.573 710.973,113.906 710.5,112.5 Z"/></g>
<g><path style="opacity:0.451" fill="#eaaf9c" d="M 859.5,110.5 C 859.573,112.027 858.906,113.027 857.5,113.5C 857.427,111.973 858.094,110.973 859.5,110.5 Z"/></g>
<g><path style="opacity:0.4" fill="#edbaa8" d="M 361.5,113.5 C 363.027,113.427 364.027,114.094 364.5,115.5C 362.973,115.573 361.973,114.906 361.5,113.5 Z"/></g>
<g><path style="opacity:0.729" fill="#e69c83" d="M 449.5,113.5 C 451.404,113.738 452.738,114.738 453.5,116.5C 451.596,116.262 450.262,115.262 449.5,113.5 Z"/></g>
<g><path style="opacity:0.463" fill="#eaaf9c" d="M 100.5,114.5 C 102.027,114.427 103.027,115.094 103.5,116.5C 101.973,116.573 100.973,115.906 100.5,114.5 Z"/></g>
<g><path style="opacity:0.416" fill="#ecb7a5" d="M 275.5,114.5 C 277.027,114.427 278.027,115.094 278.5,116.5C 276.973,116.573 275.973,115.906 275.5,114.5 Z"/></g>
<g><path style="opacity:0.565" fill="#e69f87" d="M 713.5,114.5 C 715.027,114.427 716.027,115.094 716.5,116.5C 714.973,116.573 713.973,115.906 713.5,114.5 Z"/></g>
<g><path style="opacity:0.604" fill="#e59e87" d="M 458.5,118.5 C 461.152,118.41 463.485,119.076 465.5,120.5C 462.848,120.59 460.515,119.924 458.5,118.5 Z"/></g>
<g><path style="opacity:0.592" fill="#e6a18a" d="M 633.5,118.5 C 636.152,118.41 638.485,119.076 640.5,120.5C 637.848,120.59 635.515,119.924 633.5,118.5 Z"/></g>
<g><path style="opacity:0.698" fill="#e7a089" d="M 877.5,118.5 C 876.833,121.167 875.167,122.833 872.5,123.5C 873.833,121.5 875.5,119.833 877.5,118.5 Z"/></g>
<g><path style="opacity:0.114" fill="#f6e4de" d="M 847.5,138.5 C 847.842,139.338 848.508,139.672 849.5,139.5C 849.5,139.833 849.5,140.167 849.5,140.5C 848.5,140.5 847.5,140.5 846.5,140.5C 846.328,139.508 846.662,138.842 847.5,138.5 Z"/></g>
</svg>
