<?xml version="1.0" encoding="UTF-8"?>
<!DOCTYPE svg PUBLIC "-//W3C//DTD SVG 1.1//EN" "http://www.w3.org/Graphics/SVG/1.1/DTD/svg11.dtd">
<svg xmlns="http://www.w3.org/2000/svg" version="1.1" width="1105px" height="226px" style="shape-rendering:geometricPrecision; text-rendering:geometricPrecision; image-rendering:optimizeQuality; fill-rule:evenodd; clip-rule:evenodd" xmlns:xlink="http://www.w3.org/1999/xlink">
<g><path style="opacity:0.983" fill="#aa5a59" d="M 200.5,-0.5 C 214.5,-0.5 228.5,-0.5 242.5,-0.5C 244.152,56.1742 223.152,102.174 179.5,137.5C 177.586,140.684 176.92,144.351 177.5,148.5C 174.344,170.634 164.344,188.967 147.5,203.5C 137.167,192.833 126.833,182.167 116.5,171.5C 93.0323,183.911 73.5323,179.577 58,158.5C 50.3348,143.73 50.8348,129.396 59.5,115.5C 60.3636,114.312 61.3636,113.145 62.5,112C 61.3636,110.855 60.3636,109.688 59.5,108.5C 50.5333,99.3646 41.6999,90.0312 33,80.5C 32.3333,79.5 32.3333,78.5 33,77.5C 46.3791,63.9747 62.5457,55.9747 81.5,53.5C 88.2547,54.1229 94.588,53.4563 100.5,51.5C 127.642,22.2324 160.976,4.89905 200.5,-0.5 Z M 218.5,9.5 C 222.846,9.33432 227.179,9.50098 231.5,10C 230.549,13.0567 230.216,16.2234 230.5,19.5C 228.564,53.9249 216.064,83.9249 193,109.5C 185.319,117.847 176.986,125.513 168,132.5C 167.412,145.706 164.579,158.373 159.5,170.5C 157.917,172.663 156.584,174.996 155.5,177.5C 153.5,181.5 150.5,184.5 146.5,186.5C 136.855,176.521 127.188,166.521 117.5,156.5C 99.2461,172.279 82.4128,170.946 67,152.5C 61.4159,137.632 64.0826,124.632 75,113.5C 75.6667,112.167 75.6667,110.833 75,109.5C 65.7773,99.6144 56.6106,89.7811 47.5,80C 48.6184,78.9264 49.6184,77.7598 50.5,76.5C 66.7025,66.2916 84.3691,62.1249 103.5,64C 124.167,40.846 149.167,24.5126 178.5,15C 191.808,11.8223 205.141,9.98894 218.5,9.5 Z M 188.5,54.5 C 189.314,59.1191 189.647,63.7858 189.5,68.5C 181.477,80.629 171.643,82.2957 160,73.5C 154.187,63.4328 155.687,54.5995 164.5,47C 169.411,45.5076 174.411,45.1743 179.5,46C 183.027,48.3622 186.027,51.1955 188.5,54.5 Z"/></g>
<g><path style="opacity:0.065" fill="#4c6970" d="M 218.5,9.5 C 222.97,8.51388 227.637,8.18054 232.5,8.5C 232.192,12.3597 231.525,16.0264 230.5,19.5C 230.216,16.2234 230.549,13.0567 231.5,10C 227.179,9.50098 222.846,9.33432 218.5,9.5 Z"/></g>
<g><path style="opacity:0.992" fill="#a17861" d="M 285.5,13.5 C 291.247,13.739 294.747,16.739 296,22.5C 296.667,82.5 296.667,142.5 296,202.5C 294.855,204.926 293.522,207.259 292,209.5C 286.823,212.417 282.823,211.084 280,205.5C 279.333,143.5 279.333,81.5 280,19.5C 281.36,16.9774 283.193,14.9774 285.5,13.5 Z"/></g>
<g><path style="opacity:0.992" fill="#a57860" d="M 656.5,64.5 C 655.506,74.6532 655.172,84.9865 655.5,95.5C 665.5,95.5 675.5,95.5 685.5,95.5C 686.833,99.5 686.833,103.5 685.5,107.5C 675.5,107.5 665.5,107.5 655.5,107.5C 655.5,131.833 655.5,156.167 655.5,180.5C 656.5,180.5 657.5,180.5 658.5,180.5C 664.64,180.517 670.64,181.351 676.5,183C 677.833,186 677.833,189 676.5,192C 659.833,192.667 643.167,192.667 626.5,192C 623.401,184.641 625.734,181.141 633.5,181.5C 635.5,181.5 637.5,181.5 639.5,181.5C 639.5,156.833 639.5,132.167 639.5,107.5C 635.167,107.5 630.833,107.5 626.5,107.5C 623.068,98.9148 626.068,95.2481 635.5,96.5C 636.833,96.5 638.167,96.5 639.5,96.5C 639.5,87.5 639.5,78.5 639.5,69.5C 641.745,54.8417 648.745,43.0083 660.5,34C 672.998,27.7813 685.331,28.1146 697.5,35C 699.448,36.439 700.781,38.2723 701.5,40.5C 699.509,46.6401 696.842,52.4734 693.5,58C 687.296,59.4672 684.462,56.9672 685,50.5C 684.215,48.714 683.049,47.214 681.5,46C 672.527,42.383 665.36,44.5497 660,52.5C 658.509,56.5431 657.342,60.5431 656.5,64.5 Z"/></g>
<g><path style="opacity:0.983" fill="#a95a59" d="M 167.5,33.5 C 184.671,32.6529 195.837,40.3196 201,56.5C 202.243,73.2015 195.077,84.3682 179.5,90C 161.969,91.6561 150.469,84.1561 145,67.5C 143.748,50.3304 151.248,38.9971 167.5,33.5 Z M 188.5,54.5 C 189.314,59.1191 189.647,63.7858 189.5,68.5C 181.477,80.629 171.643,82.2957 160,73.5C 154.187,63.4328 155.687,54.5995 164.5,47C 169.411,45.5076 174.411,45.1743 179.5,46C 183.027,48.3622 186.027,51.1955 188.5,54.5 Z"/></g>
<g><path style="opacity:0.984" fill="#a07760" d="M 592.5,43.5 C 599.191,42.4286 604.358,44.7619 608,50.5C 609.318,53.406 609.652,56.406 609,59.5C 603.459,71.1902 596.126,72.5236 587,63.5C 584.144,59.3611 583.81,55.0277 586,50.5C 588.372,48.2968 590.539,45.9635 592.5,43.5 Z"/></g>
<g><path style="opacity:0.034" fill="#4c6970" d="M 100.5,51.5 C 94.588,53.4563 88.2547,54.1229 81.5,53.5C 87.7329,52.7971 94.0662,52.1305 100.5,51.5 Z"/></g>
<g><path style="opacity:0.074" fill="#4c6970" d="M 188.5,54.5 C 190.047,56.8066 190.713,59.4733 190.5,62.5C 190.495,64.6965 190.162,66.6965 189.5,68.5C 189.647,63.7858 189.314,59.1191 188.5,54.5 Z"/></g>
<g><path style="opacity:0.054" fill="#4c6970" d="M 656.5,64.5 C 656.5,74.5 656.5,84.5 656.5,94.5C 666.348,94.1729 676.014,94.5062 685.5,95.5C 675.5,95.5 665.5,95.5 655.5,95.5C 655.172,84.9865 655.506,74.6532 656.5,64.5 Z"/></g>
<g><path style="opacity:0.047" fill="#4c6970" d="M 639.5,69.5 C 639.5,78.5 639.5,87.5 639.5,96.5C 638.167,96.5 636.833,96.5 635.5,96.5C 636.209,95.596 637.209,95.2627 638.5,95.5C 638.174,86.6506 638.507,77.9839 639.5,69.5 Z"/></g>
<g><path style="opacity:0.994" fill="#a6795f" d="M 721.5,71.5 C 721.5,79.5 721.5,87.5 721.5,95.5C 732.167,95.5 742.833,95.5 753.5,95.5C 754.833,99.5 754.833,103.5 753.5,107.5C 742.833,107.5 732.167,107.5 721.5,107.5C 721.17,128.007 721.503,148.34 722.5,168.5C 724.773,177.264 730.44,181.097 739.5,180C 744.381,178.893 748.714,176.726 752.5,173.5C 755.335,175.34 757.335,177.84 758.5,181C 751.041,189.231 741.708,194.064 730.5,195.5C 715.79,193.457 707.457,185.124 705.5,170.5C 705.5,149.5 705.5,128.5 705.5,107.5C 701.167,107.5 696.833,107.5 692.5,107.5C 689.142,99.5583 691.808,95.8916 700.5,96.5C 702.167,96.5 703.833,96.5 705.5,96.5C 705.5,91.8333 705.5,87.1667 705.5,82.5C 709.307,77.5147 713.807,73.5147 719,70.5C 720.07,70.528 720.903,70.8614 721.5,71.5 Z"/></g>
<g><path style="opacity:0.061" fill="#4c6970" d="M 721.5,71.5 C 722.492,78.9818 722.825,86.6484 722.5,94.5C 733.014,94.1724 743.347,94.5058 753.5,95.5C 742.833,95.5 732.167,95.5 721.5,95.5C 721.5,87.5 721.5,79.5 721.5,71.5 Z"/></g>
<g><path style="opacity:0.993" fill="#a6795f" d="M 1066.5,71.5 C 1066.5,79.5 1066.5,87.5 1066.5,95.5C 1077.17,95.5 1087.83,95.5 1098.5,95.5C 1099.83,99.5 1099.83,103.5 1098.5,107.5C 1087.83,107.5 1077.17,107.5 1066.5,107.5C 1066.17,126.674 1066.5,145.674 1067.5,164.5C 1068.19,170.36 1070.85,175.193 1075.5,179C 1079.12,180.106 1082.79,180.439 1086.5,180C 1090.38,177.957 1094.38,176.124 1098.5,174.5C 1101.13,175.465 1103.13,177.132 1104.5,179.5C 1104.5,180.167 1104.5,180.833 1104.5,181.5C 1095.38,190.596 1084.38,195.096 1071.5,195C 1064.67,193.185 1059.17,189.351 1055,183.5C 1052.39,177.411 1050.89,171.078 1050.5,164.5C 1050.5,145.5 1050.5,126.5 1050.5,107.5C 1046.5,107.5 1042.5,107.5 1038.5,107.5C 1035.14,99.5583 1037.81,95.8916 1046.5,96.5C 1047.83,96.5 1049.17,96.5 1050.5,96.5C 1050.5,91.8333 1050.5,87.1667 1050.5,82.5C 1053.96,78.5357 1057.63,74.7023 1061.5,71C 1063.39,70.2204 1065.05,70.3871 1066.5,71.5 Z"/></g>
<g><path style="opacity:0.073" fill="#4c6970" d="M 1066.5,71.5 C 1067.49,78.9818 1067.83,86.6484 1067.5,94.5C 1078.01,94.1724 1088.35,94.5058 1098.5,95.5C 1087.83,95.5 1077.17,95.5 1066.5,95.5C 1066.5,87.5 1066.5,79.5 1066.5,71.5 Z"/></g>
<g><path style="opacity:0.042" fill="#4c6970" d="M 705.5,82.5 C 705.5,87.1667 705.5,91.8333 705.5,96.5C 703.833,96.5 702.167,96.5 700.5,96.5C 701.568,95.5655 702.901,95.2322 704.5,95.5C 704.182,90.9677 704.515,86.6344 705.5,82.5 Z"/></g>
<g><path style="opacity:0.036" fill="#4c6970" d="M 1050.5,82.5 C 1050.5,87.1667 1050.5,91.8333 1050.5,96.5C 1049.17,96.5 1047.83,96.5 1046.5,96.5C 1047.21,95.596 1048.21,95.2627 1049.5,95.5C 1049.18,90.9677 1049.52,86.6344 1050.5,82.5 Z"/></g>
<g><path style="opacity:0.991" fill="#a17861" d="M 361.5,92.5 C 373.461,91.4914 384.794,93.6581 395.5,99C 396.167,100 396.833,101 397.5,102C 396.703,105.745 396.203,109.579 396,113.5C 396.079,118.935 393.579,121.101 388.5,120C 387.044,117.734 386.21,115.234 386,112.5C 381.412,107.394 375.579,105.061 368.5,105.5C 361.778,105.232 356.278,107.566 352,112.5C 351.21,115.634 351.543,118.634 353,121.5C 354.833,123.333 356.667,125.167 358.5,127C 367.593,131.88 376.927,136.214 386.5,140C 401.271,147.043 406.771,158.543 403,174.5C 398.785,184.541 391.285,190.708 380.5,193C 363.426,197.016 347.592,194.182 333,184.5C 332.71,177.071 333.877,169.905 336.5,163C 338.769,162.242 340.936,162.409 343,163.5C 344.541,177.028 352.207,183.361 366,182.5C 371.043,182.133 375.876,180.966 380.5,179C 387.312,171.777 386.978,164.777 379.5,158C 368.874,153.022 358.208,148.022 347.5,143C 337.705,135.941 333.538,126.441 335,114.5C 340.112,102.547 348.945,95.2137 361.5,92.5 Z"/></g>
<g><path style="opacity:0.995" fill="#a67960" d="M 606.5,93.5 C 606.5,122.833 606.5,152.167 606.5,181.5C 608.167,181.5 609.833,181.5 611.5,181.5C 619.266,181.141 621.599,184.641 618.5,192C 604.821,192.833 591.154,192.666 577.5,191.5C 574.303,183.893 576.636,180.559 584.5,181.5C 586.167,181.5 587.833,181.5 589.5,181.5C 589.5,158.167 589.5,134.833 589.5,111.5C 588.5,111.5 587.5,111.5 586.5,111.5C 576.916,112.753 573.916,108.92 577.5,100C 587.191,96.7012 596.858,94.5345 606.5,93.5 Z"/></g>
<g><path style="opacity:0.034" fill="#4c6970" d="M 606.5,93.5 C 607.498,122.329 607.831,151.329 607.5,180.5C 609.099,180.232 610.432,180.566 611.5,181.5C 609.833,181.5 608.167,181.5 606.5,181.5C 606.5,152.167 606.5,122.833 606.5,93.5 Z"/></g>
<g><path style="opacity:0.992" fill="#a17861" d="M 805.5,92.5 C 818.301,91.321 830.635,93.1544 842.5,98C 843.059,98.7247 843.392,99.5581 843.5,100.5C 842.194,105.757 841.36,111.091 841,116.5C 839.27,119.548 836.77,120.214 833.5,118.5C 832.479,115.247 830.812,112.414 828.5,110C 808.419,101.976 793.585,107.476 784,126.5C 779.677,140.894 781.343,154.56 789,167.5C 800.908,179.919 814.742,182.419 830.5,175C 833.968,173.03 837.301,170.864 840.5,168.5C 843.356,170.522 845.689,173.022 847.5,176C 827.74,197.381 805.406,200.714 780.5,186C 765.422,172.898 759.589,156.398 763,136.5C 767.589,112.413 781.756,97.7468 805.5,92.5 Z"/></g>
<g><path style="opacity:0.992" fill="#a27860" d="M 951.5,182.5 C 951.33,183.822 951.663,184.989 952.5,186C 951.429,186.852 950.429,187.685 949.5,188.5C 942.556,192.988 934.889,195.155 926.5,195C 919.61,193.113 916.11,188.613 916,181.5C 907.287,189.273 897.12,193.939 885.5,195.5C 869.08,194.247 860.08,185.413 858.5,169C 859.056,164.77 859.89,160.603 861,156.5C 866.364,149.396 873.53,145.229 882.5,144C 890.802,142.947 899.135,142.447 907.5,142.5C 910.833,142.5 914.167,142.5 917.5,142.5C 917.825,135.313 917.491,128.313 916.5,121.5C 917.02,115.172 914.353,110.672 908.5,108C 894.862,106.992 882.528,110.492 871.5,118.5C 868.605,115.768 866.272,112.602 864.5,109C 878.566,97.0897 894.9,91.7563 913.5,93C 926.554,95.9329 933.387,104.1 934,117.5C 934.333,137.5 934.667,157.5 935,177.5C 935.674,178.578 936.674,179.245 938,179.5C 941.817,179.004 945.484,178.004 949,176.5C 949.772,176.645 950.439,176.978 951,177.5C 951.494,179.134 951.66,180.801 951.5,182.5 Z M 907.5,152.5 C 910.5,152.5 913.5,152.5 916.5,152.5C 916.5,158.167 916.5,163.833 916.5,169.5C 908.568,174.797 899.901,178.463 890.5,180.5C 879.653,179.813 875.486,174.146 878,163.5C 880.27,158.099 884.436,155.266 890.5,155C 896.317,154.191 901.983,153.358 907.5,152.5 Z"/></g>
<g><path style="opacity:0.991" fill="#a47860" d="M 984.5,93.5 C 984.334,101.507 984.5,109.507 985,117.5C 985.717,116.956 986.217,116.289 986.5,115.5C 991.536,109.261 997.203,103.427 1003.5,98C 1006.86,96.3178 1010.2,94.6511 1013.5,93C 1016.83,92.3333 1020.17,92.3333 1023.5,93C 1026.13,94.3267 1028.8,95.6601 1031.5,97C 1033.68,98.2468 1035.02,100.08 1035.5,102.5C 1034.24,106.454 1033.07,110.454 1032,114.5C 1030.67,118.104 1028.17,119.271 1024.5,118C 1023.42,113.922 1020.75,111.589 1016.5,111C 1013.44,110.542 1010.44,110.876 1007.5,112C 999.225,116.639 991.892,122.472 985.5,129.5C 984.503,146.659 984.17,163.992 984.5,181.5C 987.167,181.5 989.833,181.5 992.5,181.5C 1002.46,178.965 1006.13,182.465 1003.5,192C 987.328,192.828 971.328,192.661 955.5,191.5C 955.5,188.833 955.5,186.167 955.5,183.5C 955.611,182.883 955.944,182.383 956.5,182C 958.81,181.503 961.143,181.337 963.5,181.5C 965.167,181.5 966.833,181.5 968.5,181.5C 969.157,157.809 968.49,134.476 966.5,111.5C 962.753,111.608 959.086,111.108 955.5,110C 954.213,106.875 954.213,103.709 955.5,100.5C 965.173,96.996 974.839,94.6626 984.5,93.5 Z"/></g>
<g><path style="opacity:0.073" fill="#4c6970" d="M 984.5,93.5 C 985.167,100.833 985.833,108.167 986.5,115.5C 986.217,116.289 985.717,116.956 985,117.5C 984.5,109.507 984.334,101.507 984.5,93.5 Z"/></g>
<g><path style="opacity:0.993" fill="#a07761" d="M 407.5,94.5 C 421.079,94.177 434.579,94.5103 448,95.5C 448.667,98.5 448.667,101.5 448,104.5C 444.579,105.633 441.413,107.133 438.5,109C 446.224,130.016 454.224,150.85 462.5,171.5C 470.02,151.958 477.02,132.124 483.5,112C 483.561,110.289 482.894,108.956 481.5,108C 477.399,107.411 473.566,106.245 470,104.5C 469.333,101.5 469.333,98.5 470,95.5C 484.092,94.3438 498.258,94.1771 512.5,95C 513.617,98.0731 513.784,101.24 513,104.5C 509.721,106.191 506.221,107.191 502.5,107.5C 509.89,128.836 517.39,150.169 525,171.5C 533.708,150.213 541.542,128.546 548.5,106.5C 538.94,107.775 535.94,103.942 539.5,95C 550.833,94.3333 562.167,94.3333 573.5,95C 574.617,98.0731 574.784,101.24 574,104.5C 570.409,106.32 566.576,107.32 562.5,107.5C 551.806,135.744 540.806,163.91 529.5,192C 524.833,192.667 520.167,192.667 515.5,192C 515,191.5 514.5,191 514,190.5C 506.049,169.599 498.382,148.599 491,127.5C 482.732,148.805 474.565,170.139 466.5,191.5C 461.869,192.662 457.202,192.828 452.5,192C 451.692,191.692 451.025,191.192 450.5,190.5C 439.382,163.319 428.549,135.986 418,108.5C 414.2,107.377 410.533,106.043 407,104.5C 406.253,101.076 406.42,97.7431 407.5,94.5 Z"/></g>
<g><path style="opacity:0.054" fill="#4c6970" d="M 626.5,107.5 C 630.833,107.5 635.167,107.5 639.5,107.5C 639.5,132.167 639.5,156.833 639.5,181.5C 637.5,181.5 635.5,181.5 633.5,181.5C 634.919,180.549 636.585,180.216 638.5,180.5C 638.5,156.5 638.5,132.5 638.5,108.5C 634.298,108.817 630.298,108.483 626.5,107.5 Z"/></g>
<g><path style="opacity:0.056" fill="#4c6970" d="M 685.5,107.5 C 676.014,108.494 666.348,108.827 656.5,108.5C 655.859,132.729 656.525,156.729 658.5,180.5C 657.5,180.5 656.5,180.5 655.5,180.5C 655.5,156.167 655.5,131.833 655.5,107.5C 665.5,107.5 675.5,107.5 685.5,107.5 Z"/></g>
<g><path style="opacity:0.045" fill="#4c6970" d="M 692.5,107.5 C 696.833,107.5 701.167,107.5 705.5,107.5C 705.5,128.5 705.5,149.5 705.5,170.5C 704.503,150.007 704.169,129.34 704.5,108.5C 700.298,108.817 696.298,108.483 692.5,107.5 Z"/></g>
<g><path style="opacity:0.065" fill="#4c6970" d="M 753.5,107.5 C 743.347,108.494 733.014,108.828 722.5,108.5C 722.5,128.5 722.5,148.5 722.5,168.5C 721.503,148.34 721.17,128.007 721.5,107.5C 732.167,107.5 742.833,107.5 753.5,107.5 Z"/></g>
<g><path style="opacity:0.035" fill="#4c6970" d="M 1038.5,107.5 C 1042.5,107.5 1046.5,107.5 1050.5,107.5C 1050.5,126.5 1050.5,145.5 1050.5,164.5C 1049.5,146.007 1049.17,127.341 1049.5,108.5C 1045.63,108.815 1041.96,108.482 1038.5,107.5 Z"/></g>
<g><path style="opacity:0.081" fill="#4c6971" d="M 1098.5,107.5 C 1088.35,108.494 1078.01,108.828 1067.5,108.5C 1067.5,127.167 1067.5,145.833 1067.5,164.5C 1066.5,145.674 1066.17,126.674 1066.5,107.5C 1077.17,107.5 1087.83,107.5 1098.5,107.5 Z"/></g>
<g><path style="opacity:0.091" fill="#4c6970" d="M 59.5,108.5 C 60.3636,109.688 61.3636,110.855 62.5,112C 61.3636,113.145 60.3636,114.312 59.5,115.5C 60.8333,113.167 60.8333,110.833 59.5,108.5 Z"/></g>
<g><path style="opacity:0.051" fill="#4c6970" d="M 586.5,111.5 C 587.5,111.5 588.5,111.5 589.5,111.5C 589.5,134.833 589.5,158.167 589.5,181.5C 587.833,181.5 586.167,181.5 584.5,181.5C 585.568,180.566 586.901,180.232 588.5,180.5C 589.14,157.27 588.474,134.27 586.5,111.5 Z"/></g>
<g><path style="opacity:0.049" fill="#4c6970" d="M 966.5,111.5 C 968.49,134.476 969.157,157.809 968.5,181.5C 966.833,181.5 965.167,181.5 963.5,181.5C 964.568,180.566 965.901,180.232 967.5,180.5C 967.822,157.425 967.489,134.425 966.5,111.5 Z"/></g>
<g><path style="opacity:0.043" fill="#4d6971" d="M 916.5,121.5 C 917.491,128.313 917.825,135.313 917.5,142.5C 914.167,142.5 910.833,142.5 907.5,142.5C 910.287,141.523 913.287,141.19 916.5,141.5C 916.5,134.833 916.5,128.167 916.5,121.5 Z"/></g>
<g><path style="opacity:0.069" fill="#4c6970" d="M 985.5,129.5 C 985.5,146.5 985.5,163.5 985.5,180.5C 988.059,180.198 990.393,180.532 992.5,181.5C 989.833,181.5 987.167,181.5 984.5,181.5C 984.17,163.992 984.503,146.659 985.5,129.5 Z"/></g>
<g><path style="opacity:0.035" fill="#4c6970" d="M 179.5,137.5 C 178.897,141.273 178.23,144.939 177.5,148.5C 176.92,144.351 177.586,140.684 179.5,137.5 Z"/></g>
<g><path style="opacity:0.054" fill="#4c6970" d="M 907.5,152.5 C 910.625,151.521 913.958,151.187 917.5,151.5C 917.823,157.69 917.49,163.69 916.5,169.5C 916.5,163.833 916.5,158.167 916.5,152.5C 913.5,152.5 910.5,152.5 907.5,152.5 Z"/></g>
<g><path style="opacity:0.059" fill="#4c6970" d="M 48.5,165.5 C 44.1434,165.586 39.81,165.92 35.5,166.5C 39.7368,164.473 44.0702,164.139 48.5,165.5 Z"/></g>
<g><path style="opacity:0.994" fill="#b05757" d="M 48.5,165.5 C 57.7237,168.936 61.557,175.602 60,185.5C 56.4834,196.682 49.6501,205.182 39.5,211C 28.6953,216.707 17.3619,221.207 5.5,224.5C 3.21879,224.923 1.55213,224.256 0.5,222.5C 3.82805,207.309 9.49471,193.142 17.5,180C 22.5959,174.286 28.5959,169.786 35.5,166.5C 39.81,165.92 44.1434,165.586 48.5,165.5 Z"/></g>
<g><path style="opacity:0.072" fill="#516b72" d="M 159.5,170.5 C 159.445,173.614 158.112,175.948 155.5,177.5C 156.584,174.996 157.917,172.663 159.5,170.5 Z"/></g>
<g><path style="opacity:0.063" fill="#4c6970" d="M 951.5,182.5 C 952.705,184.138 954.038,184.471 955.5,183.5C 955.5,186.167 955.5,188.833 955.5,191.5C 954.71,190.391 954.21,189.058 954,187.5C 952.644,188.38 951.144,188.714 949.5,188.5C 950.429,187.685 951.429,186.852 952.5,186C 951.663,184.989 951.33,183.822 951.5,182.5 Z"/></g>
<g><path style="opacity:0.105" fill="#4c6970" d="M -0.5,222.5 C -0.166667,222.5 0.166667,222.5 0.5,222.5C 1.55213,224.256 3.21879,224.923 5.5,224.5C 5.5,224.833 5.5,225.167 5.5,225.5C 3.5,225.5 1.5,225.5 -0.5,225.5C -0.5,224.5 -0.5,223.5 -0.5,222.5 Z"/></g>
</svg>
